<?xml version="1.0" encoding="UTF-8"?>
<svg width="12px" height="10px" viewBox="0 0 12 10" version="1.1" xmlns="http://www.w3.org/2000/svg" xmlns:xlink="http://www.w3.org/1999/xlink">
    <!-- Generator: Sketch 49 (51002) - http://www.bohemiancoding.com/sketch -->
    <title>Shape</title>
    <desc>Created with Sketch.</desc>
    <defs></defs>
    <g id="Page-1" stroke="none" stroke-width="1" fill="none" fill-rule="evenodd">
        <g id="Post" transform="translate(-925.000000, -875.000000)" fill="#C4C4C4">
            <g id="Content" transform="translate(370.000000, 105.000000)">
                <g id="Main">
                    <g id="Content" transform="translate(80.000000, 642.000000)">
                        <g id="Items" transform="translate(1.000000, 121.000000)">
                            <g id="1">
                                <g id="Thumbs" transform="translate(5.000000, 1.000000)">
                                    <path d="M480.400285,11.5558025 L469.599715,11.5558025 C469.268507,11.5558025 469,11.3069274 469,11.0002778 C469,10.6933504 469.268507,10.4444753 469.599715,10.4444753 L480.400285,10.4444753 C480.731493,10.4444753 481,10.6933504 481,11.0002778 C481,11.3069274 480.731493,11.5558025 480.400285,11.5558025 L480.400285,11.5558025 Z M480.400285,7.11104939 L469.599715,7.11104939 C469.268507,7.11104939 469,6.86217432 469,6.55608022 C469,6.24887506 469.268507,6 469.599715,6 L480.400285,6 C480.731493,6 481,6.24887506 481,6.55608022 C481,6.86245209 480.731493,7.11104939 480.400285,7.11104939 L480.400285,7.11104939 Z M469.599715,14.8895061 L480.400285,14.8895061 C480.731493,14.8895061 481,15.1372702 481,15.4441975 C481,15.7511249 480.731193,16 480.400285,16 L469.599715,16 C469.268507,16 469,15.7511249 469,15.4441975 C469,15.1372702 469.268507,14.8895061 469.599715,14.8895061 L469.599715,14.8895061 Z" id="Shape"></path>
                                </g>
                            </g>
                        </g>
                    </g>
                </g>
            </g>
        </g>
    </g>
</svg>