<?xml version="1.0" encoding="UTF-8"?>
<svg width="15px" height="13px" viewBox="0 0 15 13" version="1.1" xmlns="http://www.w3.org/2000/svg" xmlns:xlink="http://www.w3.org/1999/xlink">
    <!-- Generator: Sketch 49 (51002) - http://www.bohemiancoding.com/sketch -->
    <title>Fill 1</title>
    <desc>Created with Sketch.</desc>
    <defs></defs>
    <g id="Page-1" stroke="none" stroke-width="1" fill="none" fill-rule="evenodd">
        <g id="Post" transform="translate(-1047.000000, -583.000000)" fill="#999999">
            <g id="Content" transform="translate(370.000000, 105.000000)">
                <g id="Main">
                    <g id="Images-+-Meta">
                        <g id="Meta" transform="translate(0.000000, 468.000000)">
                            <g id="Share" transform="translate(668.000000, 0.000000)">
                                <path d="M21.396975,17.9836007 C21.601526,17.9836007 21.7671047,18.1493948 21.7671047,18.3537305 L21.7671047,20.5396278 C21.7671047,21.5600146 20.9370581,22.3909225 19.9160253,22.3909225 L11.7692948,22.3909225 C10.7480467,22.3909225 9.918,21.5608758 9.918,20.5396278 L9.918,12.3928972 C9.918,11.3718645 10.7480467,10.5418178 11.7692948,10.5418178 L16.9898685,10.5418178 C17.1942043,10.5418178 17.359783,10.7073965 17.359783,10.9117322 C17.359783,11.1162833 17.1942043,11.281862 16.9898685,11.281862 L11.7692948,11.281862 C11.1569335,11.281862 10.6580442,11.7807513 10.6580442,12.3928972 L10.6580442,20.5396278 C10.6580442,21.151989 11.1569335,21.650663 11.7692948,21.650663 L19.9160253,21.650663 C20.5281712,21.650663 21.0270605,21.151989 21.0270605,20.5396278 L21.0270605,18.3537305 C21.0270605,18.1493948 21.1926392,17.9836007 21.396975,17.9836007 Z M23.0876433,13.4755107 C23.0876433,13.4871378 23.0859208,13.4981189 23.083337,13.5091001 C23.0818298,13.5224497 23.0801072,13.5351534 23.0766622,13.5487184 C23.0758009,13.5536707 23.0758009,13.557977 23.0742937,13.5629293 C23.0725711,13.5696041 23.0691261,13.5747717 23.0674035,13.5805853 C23.0633125,13.593289 23.0590062,13.6057774 23.0531926,13.6176198 C23.048025,13.6294622 23.0422115,13.6402281 23.0363979,13.650348 C23.030369,13.6596066 23.0245555,13.6688652 23.0178806,13.6781239 C23.0094833,13.6899663 23.0010859,13.7009475 22.990966,13.7117133 C22.987521,13.7160196 22.9849372,13.7201107 22.9808461,13.724417 L20.0960302,16.6092329 C20.0236837,16.6815794 19.9293749,16.7177526 19.8344202,16.7177526 C19.7401114,16.7177526 19.6451566,16.6815794 19.5728101,16.6092329 C19.4281172,16.4647553 19.4281172,16.2300599 19.5728101,16.0853669 L21.9740243,13.6839374 C20.8705251,13.4972577 18.5558684,13.2987355 16.6877789,14.4384079 C15.3168561,15.2753447 14.418554,16.6899768 14.0200024,18.6439777 C13.9838292,18.818815 13.8298776,18.9400384 13.6574087,18.9400384 C13.6330779,18.9400384 13.6078858,18.9374546 13.5826938,18.932287 C13.382449,18.8911615 13.2528283,18.6952231 13.2941691,18.4949784 C13.73643,16.3293209 14.7499267,14.7506174 16.3068833,13.802577 C18.1454744,12.6831444 20.2969209,12.7109203 21.6099234,12.876499 L19.5728101,10.8396011 C19.4281172,10.6949081 19.4281172,10.4602127 19.5728101,10.3155197 C19.7166418,10.1708268 19.9513373,10.1708268 20.0960302,10.3155197 L22.9808461,13.2003356 C22.9842912,13.2037807 22.9866597,13.2080871 22.9901048,13.2113168 C22.9993634,13.2214367 23.0077608,13.2315566 23.0152968,13.2425378 C23.0219717,13.2517964 23.0288618,13.2601937 23.0346754,13.2703136 C23.0413502,13.2802182 23.0465178,13.2911994 23.0514701,13.3021805 C23.0566377,13.3131617 23.06159,13.3241429 23.065681,13.3349087 C23.0699873,13.3467511 23.0725711,13.3577323 23.0758009,13.3695747 C23.0783847,13.3812018 23.0818298,13.392183 23.083337,13.4040254 C23.0850595,13.4156526 23.0859208,13.4283563 23.0867821,13.4401987 C23.0876433,13.4518258 23.0885046,13.4636682 23.0876433,13.4755107 Z" id="Fill-1"></path>
                            </g>
                        </g>
                    </g>
                </g>
            </g>
        </g>
    </g>
</svg>